<?xml version="1.0" encoding="UTF-8" standalone="no"?><!DOCTYPE svg PUBLIC "-//W3C//DTD SVG 1.1//EN" "http://www.w3.org/Graphics/SVG/1.1/DTD/svg11.dtd"><svg width="100%" height="100%" viewBox="0 0 3000 2000" version="1.1" xmlns="http://www.w3.org/2000/svg" xmlns:xlink="http://www.w3.org/1999/xlink" xml:space="preserve" xmlns:serif="http://www.serif.com/" style="fill-rule:evenodd;clip-rule:evenodd;stroke-linecap:round;stroke-linejoin:round;"><g><ellipse cx="1500" cy="565.231" rx="403.85" ry="403.868" style="fill:#525abe;"/><path d="M1500,495.781c14.35,-56.651 68.549,-85.577 186.553,-86.106c0.018,0 0.036,0 0.054,0c7.843,0 14.297,6.454 14.297,14.297c-0,0.018 -0,0.036 -0,0.054l-0,258.316c-0,7.873 -6.478,14.351 -14.351,14.351c-114.802,0 -159.153,23.15 -186.553,57.404c-27.239,-34.084 -71.751,-57.404 -186.553,-57.404c-8.862,0 -14.351,-7.22 -14.351,-16.082l0,-256.585c0,-0.018 0,-0.036 0,-0.054c0,-7.843 6.454,-14.297 14.297,-14.297c0.018,0 0.036,0 0.054,0c118.004,0.529 172.203,29.455 186.553,86.106Zm0,-0l0,258.316" style="fill:none;fill-rule:nonzero;stroke:#fff;stroke-width:28.7px;"/></g><text x="107.655px" y="1896.23px" style="font-family:'Poppins-Black', 'Poppins';font-weight:900;font-size:905.296px;fill:#fff;">dotlib</text></svg>