<?xml version="1.0" encoding="UTF-8" standalone="no"?><!DOCTYPE svg PUBLIC "-//W3C//DTD SVG 1.1//EN" "http://www.w3.org/Graphics/SVG/1.1/DTD/svg11.dtd"><svg width="100%" height="100%" viewBox="0 0 4000 4000" version="1.1" xmlns="http://www.w3.org/2000/svg" xmlns:xlink="http://www.w3.org/1999/xlink" xml:space="preserve" xmlns:serif="http://www.serif.com/" style="fill-rule:evenodd;clip-rule:evenodd;stroke-linecap:round;stroke-linejoin:round;"><circle cx="2000" cy="2000" r="2000" style="fill:#525abe;"/><path d="M2000,1656.07c71.067,-280.538 339.48,-423.783 923.875,-426.404c0.089,-0 0.178,-0 0.267,-0c38.84,-0 70.801,31.96 70.801,70.8c-0,0.089 -0,0.178 -0.001,0.267l0,1279.21c0,38.986 -32.081,71.067 -71.067,71.067c-568.538,0 -788.181,114.641 -923.875,284.269c-134.895,-168.784 -355.337,-284.269 -923.875,-284.269c-43.884,0 -71.067,-35.755 -71.067,-79.64l-0,-1270.64c-0.001,-0.089 -0.001,-0.178 -0.001,-0.267c0,-38.84 31.961,-70.8 70.801,-70.8c0.089,-0 0.178,-0 0.267,0c584.395,2.621 852.808,145.866 923.875,426.404Zm0,-0l0,1279.21" style="fill:none;fill-rule:nonzero;stroke:#fff;stroke-width:142.13px;"/></svg>